<svg version="1.1" xmlns="http://www.w3.org/2000/svg" viewBox="0 0 3196.254684084934 1908.666666666666" width="3196.254684084934" height="1908.666666666666">
  <!-- svg-source:excalidraw -->
  
  <defs>
    <style class="style-fonts">
      @font-face {
        font-family: "Virgil";
        src: url("https://excalidraw.com/Virgil.woff2");
      }
      @font-face {
        font-family: "Cascadia";
        src: url("https://excalidraw.com/Cascadia.woff2");
      }
    </style>
  </defs>
  <rect x="0" y="0" width="3196.254684084934" height="1908.666666666666" fill="#ffffff"></rect><g stroke-linecap="round" transform="translate(836.6197634500165 54.63492063491901) rotate(0 145.00000000000006 74.99999999999989)"><path d="M32 0 M32 0 C104.78 1.97, 180.91 2.4, 258 0 M32 0 C106.46 0, 181.77 -0.65, 258 0 M258 0 C278 1.27, 290.11 10.4, 290 32 M258 0 C281.01 -0.44, 290.75 10.23, 290 32 M290 32 C288.66 54.45, 291 79.64, 290 118 M290 32 C289.7 53.37, 290.89 75.08, 290 118 M290 118 C290.45 138.07, 280.79 151.57, 258 150 M290 118 C291.77 138, 278.6 151.32, 258 150 M258 150 C203.88 152.96, 154.04 153.29, 32 150 M258 150 C194.69 150.56, 131.12 150.14, 32 150 M32 150 C11.97 150, -0.11 137.46, 0 118 M32 150 C10.53 150.87, -0.35 139.76, 0 118 M0 118 C0.02 102.46, -0.17 83.29, 0 32 M0 118 C1.1 89.18, 0.11 61.44, 0 32 M0 32 C-1.88 10.1, 12.1 0.06, 32 0 M0 32 C-0.81 10.23, 9.52 0.49, 32 0" stroke="#000000" stroke-width="1" fill="none"></path></g><g transform="translate(845.1696342589358 121.56825396825218) rotate(0 138.92990112304688 24)"><text x="138.92990112304688" y="0" font-family="Virgil, Segoe UI Emoji" font-size="20px" fill="#000000" text-anchor="middle" style="white-space: pre;" direction="ltr" dominant-baseline="text-before-edge">Admin - Get Activity Events</text><text x="138.92990112304688" y="24" font-family="Virgil, Segoe UI Emoji" font-size="20px" fill="#000000" text-anchor="middle" style="white-space: pre;" direction="ltr" dominant-baseline="text-before-edge">by Event Time</text></g><g stroke-linecap="round" transform="translate(834.5245253547785 255.3968253968236) rotate(0 145.00000000000006 74.99999999999989)"><path d="M32 0 M32 0 C120.12 0.03, 205.53 -0.65, 258 0 M32 0 C92.2 -0.91, 152.21 -1.03, 258 0 M258 0 C280.99 -1.18, 290.12 11.36, 290 32 M258 0 C278.76 0.2, 287.73 9.62, 290 32 M290 32 C291.18 63.75, 288.42 96.09, 290 118 M290 32 C289.7 59.07, 289.57 86.56, 290 118 M290 118 C288.81 139.33, 278.19 149.83, 258 150 M290 118 C288.48 140.58, 279.04 149.92, 258 150 M258 150 C208.05 149.42, 160.99 150.86, 32 150 M258 150 C170.08 147.86, 81.98 148.76, 32 150 M32 150 C12.61 148.56, 0.9 137.47, 0 118 M32 150 C10.44 150.91, 0.55 140.54, 0 118 M0 118 C-1.23 87.21, 0.31 58.86, 0 32 M0 118 C0.04 90.37, 0.54 63.72, 0 32 M0 32 C-1.38 9.6, 11.66 -0.77, 32 0 M0 32 C-1.7 10.05, 11.17 -1.81, 32 0" stroke="#000000" stroke-width="1" fill="none"></path></g><g transform="translate(855.5743961636977 316.080158730157) rotate(0 119.21990966796875 24)"><text x="119.21990966796875" y="0" font-family="Virgil, Segoe UI Emoji" font-size="20px" fill="#000000" text-anchor="middle" style="white-space: pre;" direction="ltr" dominant-baseline="text-before-edge">Admin - Get Capacities </text><text x="119.21990966796875" y="24" font-family="Virgil, Segoe UI Emoji" font-size="20px" fill="#000000" text-anchor="middle" style="white-space: pre;" direction="ltr" dominant-baseline="text-before-edge">As Admin</text></g><g stroke-linecap="round"><g transform="translate(1122.3627698383632 135.8268358187189) rotate(0 222.6754995841721 -3.6659709378400294)"><path d="M0.9 0.51 C75.18 -0.71, 371.4 -5.07, 445.43 -6.34 M-0.08 -0.26 C74.07 -1.87, 370.51 -6.35, 444.55 -7.84" stroke="#000000" stroke-width="1" fill="none"></path></g><g transform="translate(1122.3627698383632 135.8268358187189) rotate(0 222.6754995841721 -3.6659709378400294)"><path d="M417.4 3.12 C426.25 -0.69, 432.78 -2.24, 442.71 -6.9 M416.47 3.1 C426.26 0.17, 435.59 -3.73, 445.19 -8.46" stroke="#000000" stroke-width="1" fill="none"></path></g><g transform="translate(1122.3627698383632 135.8268358187189) rotate(0 222.6754995841721 -3.6659709378400294)"><path d="M417.04 -17.4 C426.16 -15.48, 432.79 -11.3, 442.71 -6.9 M416.11 -17.42 C425.83 -13.58, 435.28 -10.71, 445.19 -8.46" stroke="#000000" stroke-width="1" fill="none"></path></g></g><mask></mask><g stroke-linecap="round" transform="translate(1550.830080910334 41.95238095237926) rotate(0 216.25 83.125)"><path d="M271.25 21 M271.25 21 C304.48 36.19, 340.44 49.59, 378.25 63 M271.25 21 C302.63 34.01, 335.19 46.83, 378.25 63 M378.25 63 C431.53 84.45, 433.93 82.01, 378.25 105 M378.25 63 C431.97 85.86, 431.96 82.13, 378.25 105 M378.25 105 C341.36 118.66, 306.93 130.12, 271.25 145.25 M378.25 105 C336.77 122.11, 295.86 137.8, 271.25 145.25 M271.25 145.25 C216.87 167.01, 216.4 167.08, 162.75 145.25 M271.25 145.25 C216.37 164.52, 219.29 164.83, 162.75 145.25 M162.75 145.25 C123.07 129.47, 84.29 117.53, 54.25 105 M162.75 145.25 C131.76 134.29, 101.73 124.3, 54.25 105 M54.25 105 C1.19 84.99, 0.48 83.26, 54.25 63 M54.25 105 C-0.04 82.92, -1.8 83.11, 54.25 63 M54.25 63 C86.3 50.68, 119.94 36.48, 162.75 21 M54.25 63 C80.92 53.94, 108.35 42.36, 162.75 21 M162.75 21 C216.64 0.21, 218.04 -0.93, 271.25 21 M162.75 21 C215.65 1.28, 216.64 1.02, 271.25 21" stroke="#000000" stroke-width="1" fill="none"></path></g><g transform="translate(1654.550181313166 100.70238095237926) rotate(0 115.02989959716797 24)"><text x="115.02989959716797" y="0" font-family="Virgil, Segoe UI Emoji" font-size="20px" fill="#000000" text-anchor="middle" style="white-space: pre;" direction="ltr" dominant-baseline="text-before-edge">List of Activity Events</text><text x="115.02989959716797" y="24" font-family="Virgil, Segoe UI Emoji" font-size="20px" fill="#000000" text-anchor="middle" style="white-space: pre;" direction="ltr" dominant-baseline="text-before-edge">by Event Time</text></g><g stroke-linecap="round" transform="translate(1559.580080910334 231.95238095237926) rotate(0 210 83.125)"><path d="M262.5 21 M262.5 21 C290.11 31.59, 314.43 40.51, 367.5 63 M262.5 21 C302.02 35.69, 339.83 51.65, 367.5 63 M367.5 63 C420.36 82.69, 421.42 83.7, 367.5 105 M367.5 63 C420.23 82.13, 418.48 85.56, 367.5 105 M367.5 105 C344.63 113.36, 324.27 123.31, 262.5 145.25 M367.5 105 C346.25 113.6, 323.57 121.58, 262.5 145.25 M262.5 145.25 C210.11 166.58, 211.36 165.32, 157.5 145.25 M262.5 145.25 C211.84 167.44, 210.79 164.68, 157.5 145.25 M157.5 145.25 C120.49 131.38, 84.32 116.39, 52.5 105 M157.5 145.25 C118.04 129.08, 76.71 114.94, 52.5 105 M52.5 105 C0.59 82.97, -1.67 82.29, 52.5 63 M52.5 105 C-1.69 85.64, 0.01 82.21, 52.5 63 M52.5 63 C90.98 49.23, 131.74 32.51, 157.5 21 M52.5 63 C90.11 48.39, 127.27 32.26, 157.5 21 M157.5 21 C208.21 0.89, 211.54 -0.74, 262.5 21 M157.5 21 C208.51 -1.94, 208.34 -0.27, 262.5 21" stroke="#000000" stroke-width="1" fill="none"></path></g><g stroke-linecap="round"><g transform="translate(1125.830080910334 324.45238095237926) rotate(0 224.73416947121427 -3.0332550626247894)"><path d="M-1.01 -0.41 C73.53 -1.34, 373.34 -4.74, 448.39 -5.66 M0.67 -1.67 C75.44 -2.45, 375.86 -3.9, 450.47 -4.47" stroke="#000000" stroke-width="1" fill="none"></path></g><g transform="translate(1125.830080910334 324.45238095237926) rotate(0 224.73416947121427 -3.0332550626247894)"><path d="M421.66 3.98 C432.5 1.5, 443.34 -2.86, 448.75 -4.89 M422.71 5.71 C428.83 3.85, 434.83 0.94, 450.04 -4.89" stroke="#000000" stroke-width="1" fill="none"></path></g><g transform="translate(1125.830080910334 324.45238095237926) rotate(0 224.73416947121427 -3.0332550626247894)"><path d="M421.54 -16.54 C432.42 -10.81, 443.3 -6.97, 448.75 -4.89 M422.59 -14.81 C428.89 -12.14, 434.92 -10.53, 450.04 -4.89" stroke="#000000" stroke-width="1" fill="none"></path></g></g><mask></mask><g transform="translate(1677.1768318055165 294.45238095237926) rotate(0 90.31991577148438 24)"><text x="90.31991577148438" y="0" font-family="Virgil, Segoe UI Emoji" font-size="20px" fill="#000000" text-anchor="middle" style="white-space: pre;" direction="ltr" dominant-baseline="text-before-edge">List of Capacities</text><text x="90.31991577148438" y="24" font-family="Virgil, Segoe UI Emoji" font-size="20px" fill="#000000" text-anchor="middle" style="white-space: pre;" direction="ltr" dominant-baseline="text-before-edge">( ID, Name, ... )</text></g><g stroke-linecap="round" transform="translate(1621.7824618627142 483.5595238095217) rotate(0 145 74.99999999999989)"><path d="M32 0 M32 0 C78.49 -1.93, 125.6 0.18, 258 0 M32 0 C87.66 -1.55, 145.06 -0.08, 258 0 M258 0 C277.77 0.2, 290.65 11.33, 290 32 M258 0 C277.55 -1.69, 291.39 11.2, 290 32 M290 32 C289.06 66.15, 289.16 98.16, 290 118 M290 32 C289.99 51.38, 290.34 70.56, 290 118 M290 118 C290.36 138.32, 279.94 150.47, 258 150 M290 118 C290.3 139.65, 277.54 147.86, 258 150 M258 150 C171.52 151.12, 83.99 150.98, 32 150 M258 150 C176.98 150, 95.75 149.68, 32 150 M32 150 C9.06 148.32, 0.28 137.92, 0 118 M32 150 C11.12 151.55, -0.51 137.62, 0 118 M0 118 C-1.55 92.72, -0.04 70.11, 0 32 M0 118 C1.62 96.91, 0 76.99, 0 32 M0 32 C-0.95 9.83, 12.46 -1.53, 32 0 M0 32 C2.16 10.01, 10.41 -0.97, 32 0" stroke="#000000" stroke-width="1" fill="none"></path></g><g transform="translate(1637.6290118505071 540.9095238095216) rotate(0 126.08989715576172 12)"><text x="126.08989715576172" y="0" font-family="Virgil, Segoe UI Emoji" font-size="20px" fill="#000000" text-anchor="middle" style="white-space: pre;" direction="ltr" dominant-baseline="text-before-edge">Admin - Get Refreshables</text></g><g transform="translate(1203.5870857844275 60.87712176419143) rotate(0 138.48988342285156 24)"><text x="138.48988342285156" y="0" font-family="Virgil, Segoe UI Emoji" font-size="20px" fill="#000000" text-anchor="middle" style="white-space: pre;" direction="ltr" dominant-baseline="text-before-edge">required: startDateTime &amp; </text><text x="138.48988342285156" y="24" font-family="Virgil, Segoe UI Emoji" font-size="20px" fill="#000000" text-anchor="middle" style="white-space: pre;" direction="ltr" dominant-baseline="text-before-edge">endDateTime (both UTC)</text></g><g stroke-linecap="round" transform="translate(2348.449128529381 464.4345238095219) rotate(0 210 83.125)"><path d="M262.5 21 M262.5 21 C304.52 35.97, 342.26 54.4, 367.5 63 M262.5 21 C296.61 35.29, 331.38 48.61, 367.5 63 M367.5 63 C419.64 82.02, 419.6 84.57, 367.5 105 M367.5 63 C418.12 82.76, 419.5 81.74, 367.5 105 M367.5 105 C346.65 113.23, 322.94 120.42, 262.5 145.25 M367.5 105 C334.95 116.92, 300.61 129.88, 262.5 145.25 M262.5 145.25 C210.44 167.6, 211.18 167.06, 157.5 145.25 M262.5 145.25 C208.22 165.36, 210.32 164.02, 157.5 145.25 M157.5 145.25 C118.23 128.83, 74.64 114.81, 52.5 105 M157.5 145.25 C124.05 130.81, 90.35 118.93, 52.5 105 M52.5 105 C-1.85 85.56, 0.74 82.25, 52.5 63 M52.5 105 C1.72 85.72, 0.83 84.29, 52.5 63 M52.5 63 C84.4 49.1, 112.82 37.34, 157.5 21 M52.5 63 C91.69 46.3, 131.36 29.72, 157.5 21 M157.5 21 C209.62 1.95, 208.38 -0.89, 262.5 21 M157.5 21 C207.8 -1.73, 211.53 1.91, 262.5 21" stroke="#000000" stroke-width="1" fill="none"></path></g><g transform="translate(2407.732596140058 522.2261904761887) rotate(0 153.04986572265625 24)"><text x="153.04986572265625" y="0" font-family="Virgil, Segoe UI Emoji" font-size="20px" fill="#000000" text-anchor="middle" style="white-space: pre;" direction="ltr" dominant-baseline="text-before-edge">List of Dataset refreshables </text><text x="153.04986572265625" y="24" font-family="Virgil, Segoe UI Emoji" font-size="20px" fill="#000000" text-anchor="middle" style="white-space: pre;" direction="ltr" dominant-baseline="text-before-edge">within a Capacity </text></g><g stroke-linecap="round"><g transform="translate(1913.4491285293811 553.258839031735) rotate(0 216.51591166933576 -1.482679202732129)"><path d="M0.03 0.62 C72.34 -0.15, 362.29 -2.77, 434.44 -3.58 M-1.41 -0.1 C70.73 -0.19, 360.98 -1.72, 433.77 -2.29" stroke="#000000" stroke-width="1" fill="none"></path></g><g transform="translate(1913.4491285293811 553.258839031735) rotate(0 216.51591166933576 -1.482679202732129)"><path d="M406.67 9.03 C414.62 2.87, 423.33 1.52, 434.95 -3.61 M404.83 8.39 C416.72 3.07, 426.73 -0.51, 433.14 -3.11" stroke="#000000" stroke-width="1" fill="none"></path></g><g transform="translate(1913.4491285293811 553.258839031735) rotate(0 216.51591166933576 -1.482679202732129)"><path d="M406.54 -11.49 C414.71 -10.46, 423.47 -4.62, 434.95 -3.61 M404.7 -12.13 C416.8 -9.94, 426.86 -5.99, 433.14 -3.11" stroke="#000000" stroke-width="1" fill="none"></path></g></g><mask></mask><g transform="translate(1930.935955108157 508.5595238095219) rotate(0 189.17984008789062 12)"><text x="189.17984008789062" y="0" font-family="Virgil, Segoe UI Emoji" font-size="20px" fill="#000000" text-anchor="middle" style="white-space: pre;" direction="ltr" dominant-baseline="text-before-edge">filter: capacityId, averageDuration, ...</text></g><g stroke-linecap="round" transform="translate(831.1118269420799 728.2619047619029) rotate(0 145.00000000000006 74.99999999999989)"><path d="M32 0 M32 0 C80.87 0.42, 129.48 -0.22, 258 0 M32 0 C112.96 1.55, 194.73 1.17, 258 0 M258 0 C280.26 1.36, 290.88 11.56, 290 32 M258 0 C277.84 0.66, 289.35 11.04, 290 32 M290 32 C287.73 60.98, 289.04 90.78, 290 118 M290 32 C290.73 56.38, 289.92 82.31, 290 118 M290 118 C291.82 138.48, 278.8 150.28, 258 150 M290 118 C288.77 139.98, 280.39 149.9, 258 150 M258 150 C212.17 147.19, 168.68 149.16, 32 150 M258 150 C196.53 147.86, 134.6 148.94, 32 150 M32 150 C11.55 148.45, -1.59 138.87, 0 118 M32 150 C9.71 148.29, 0.66 138.47, 0 118 M0 118 C-0.29 85.74, -0.97 58.22, 0 32 M0 118 C-1.54 94.59, -1.1 69.54, 0 32 M0 32 C-1.87 11.74, 8.96 0.28, 32 0 M0 32 C-2.01 12.03, 9.76 1.78, 32 0" stroke="#000000" stroke-width="1" fill="none"></path></g><g transform="translate(873.7819014049705 784.1190476190458) rotate(0 102.32992553710938 24)"><text x="102.32992553710938" y="0" font-family="Virgil, Segoe UI Emoji" font-size="20px" fill="#000000" text-anchor="middle" style="white-space: pre;" direction="ltr" dominant-baseline="text-before-edge">Admin - Get Groups </text><text x="102.32992553710938" y="24" font-family="Virgil, Segoe UI Emoji" font-size="20px" fill="#000000" text-anchor="middle" style="white-space: pre;" direction="ltr" dominant-baseline="text-before-edge">As Admin</text></g><g transform="translate(1284.68473016648 166.119047619046) rotate(0 58.56995391845703 12)"><text x="58.56995391845703" y="0" font-family="Virgil, Segoe UI Emoji" font-size="20px" fill="#000000" text-anchor="middle" style="white-space: pre;" direction="ltr" dominant-baseline="text-before-edge">partial load</text></g><g stroke-linecap="round" transform="translate(1266.11182694208 153.26190476190288) rotate(0 80.71428571428567 26.428571428571445)"><path d="M86.52 0.53 C98.6 0.42, 113.07 2.18, 123.66 4.15 C134.26 6.11, 143.87 8.71, 150.09 12.31 C156.31 15.9, 160.14 21.46, 160.98 25.72 C161.81 29.98, 160.23 34.25, 155.1 37.87 C149.98 41.49, 140.33 45.14, 130.23 47.42 C120.13 49.69, 106.88 50.74, 94.52 51.52 C82.16 52.3, 68.02 53.22, 56.06 52.11 C44.1 51, 31.58 47.73, 22.78 44.86 C13.97 41.98, 6.92 38.83, 3.23 34.86 C-0.47 30.89, -1.61 25.3, 0.61 21.02 C2.83 16.74, 8.52 12.32, 16.53 9.18 C24.53 6.04, 36.33 3.54, 48.65 2.2 C60.96 0.87, 83.04 1.51, 90.44 1.17 C97.84 0.83, 93.3 0.05, 93.03 0.16 M89.32 -1.36 C100.98 -1.44, 113.75 2.35, 124.27 4.76 C134.8 7.16, 146.16 9.66, 152.47 13.08 C158.77 16.5, 162.15 21.14, 162.1 25.26 C162.05 29.37, 157.83 34.19, 152.15 37.8 C146.47 41.41, 138.1 44.58, 128.02 46.92 C117.93 49.27, 104.09 51.26, 91.63 51.86 C79.17 52.45, 64.67 51.58, 53.26 50.51 C41.86 49.44, 31.77 48.37, 23.19 45.43 C14.61 42.49, 5.42 37.08, 1.79 32.87 C-1.84 28.65, -1.54 24.24, 1.4 20.12 C4.33 15.99, 11.34 11.06, 19.4 8.11 C27.46 5.16, 38.33 3.96, 49.77 2.4 C61.21 0.84, 81.85 -0.81, 88.02 -1.24 C94.2 -1.67, 86.9 -0.82, 86.82 -0.2" stroke="#000000" stroke-width="1" fill="none"></path></g><g stroke-linecap="round" transform="translate(1269.6832555135084 335.40476190476045) rotate(0 80.71428571428567 26.428571428571445)"><path d="M45.36 2.83 C55.5 0.68, 70.07 -0.55, 82.56 -0.59 C95.05 -0.62, 109.19 0.57, 120.29 2.62 C131.39 4.67, 142.27 7.99, 149.14 11.72 C156.02 15.45, 160.57 20.79, 161.55 25 C162.54 29.2, 160.03 33.34, 155.05 36.93 C150.07 40.52, 141.28 43.91, 131.7 46.55 C122.12 49.2, 109.81 51.76, 97.59 52.8 C85.37 53.83, 70.43 54.11, 58.38 52.78 C46.33 51.44, 34.38 47.58, 25.29 44.78 C16.19 41.98, 7.73 39.64, 3.82 35.98 C-0.09 32.31, -0.07 27.11, 1.81 22.79 C3.69 18.48, 7.51 13.41, 15.09 10.09 C22.67 6.77, 41.53 4.29, 47.29 2.87 C53.05 1.45, 49.11 1.39, 49.66 1.55 M78.83 -1.12 C90.91 -1.43, 106.58 1.88, 118.04 3.75 C129.51 5.61, 140.56 6.71, 147.6 10.05 C154.64 13.39, 158.88 19.4, 160.28 23.8 C161.67 28.19, 160.02 32.71, 155.97 36.42 C151.93 40.13, 145.18 43.23, 136.04 46.06 C126.89 48.89, 113.52 52.26, 101.11 53.4 C88.71 54.54, 73.8 54.08, 61.62 52.88 C49.45 51.69, 37.41 49.03, 28.05 46.23 C18.69 43.43, 9.84 39.8, 5.48 36.08 C1.12 32.36, 0.38 27.9, 1.88 23.91 C3.39 19.91, 7.71 15.33, 14.52 12.11 C21.33 8.88, 31.95 6.64, 42.72 4.55 C53.5 2.47, 72.82 0.28, 79.17 -0.38 C85.53 -1.04, 80.73 -0.01, 80.85 0.61" stroke="#000000" stroke-width="1" fill="none"></path></g><g transform="translate(1308.993958776512 349.645511259116) rotate(0 41.32996368408203 12)"><text x="41.32996368408203" y="0" font-family="Virgil, Segoe UI Emoji" font-size="20px" fill="#000000" text-anchor="middle" style="white-space: pre;" direction="ltr" dominant-baseline="text-before-edge">full load</text></g><g stroke-linecap="round" transform="translate(2061.1118269420795 563.9761904761887) rotate(0 92.5 41)"><path d="M89.54 0.26 C102.1 -0.46, 117.67 2, 129.8 4.28 C141.94 6.56, 153.54 9.6, 162.36 13.95 C171.19 18.3, 179.21 24.53, 182.75 30.38 C186.3 36.22, 186.38 43.23, 183.62 49.02 C180.86 54.8, 174.11 60.25, 166.17 65.11 C158.23 69.97, 147.51 75.45, 135.99 78.17 C124.47 80.89, 110.34 81.44, 97.06 81.42 C83.79 81.39, 68.71 80.24, 56.33 78.03 C43.96 75.81, 31.58 72.39, 22.81 68.11 C14.05 63.84, 7.21 57.98, 3.74 52.36 C0.27 46.73, -0.22 40.45, 1.99 34.37 C4.21 28.28, 9.1 20.8, 17.04 15.85 C24.98 10.89, 36.64 7.31, 49.61 4.64 C62.59 1.98, 85.95 0.32, 94.9 -0.14 C103.84 -0.6, 103.11 1.28, 103.28 1.88 M105.96 1.11 C118.62 1.45, 133.24 4.55, 144.36 8.08 C155.47 11.62, 165.77 17.13, 172.66 22.32 C179.56 27.51, 184.63 33.28, 185.73 39.2 C186.83 45.12, 184.47 52.32, 179.26 57.85 C174.06 63.37, 164.78 68.73, 154.5 72.36 C144.22 75.99, 130.53 77.94, 117.58 79.62 C104.63 81.31, 89.59 83.05, 76.81 82.46 C64.04 81.86, 51.63 79.87, 40.94 76.06 C30.25 72.25, 19.69 65.1, 12.68 59.6 C5.68 54.1, -0.26 48.78, -1.06 43.06 C-1.87 37.34, 2.66 30.9, 7.84 25.28 C13.02 19.65, 20.16 13.3, 30.01 9.31 C39.86 5.32, 54 3.03, 66.94 1.34 C79.88 -0.36, 100.85 -0.68, 107.65 -0.86 C114.46 -1.04, 107.92 -0.71, 107.79 0.27" stroke="#000000" stroke-width="1" fill="none"></path></g><g transform="translate(2095.1344957638667 592.9848124475403) rotate(0 58.56995391845703 12)"><text x="58.56995391845703" y="0" font-family="Virgil, Segoe UI Emoji" font-size="20px" fill="#000000" text-anchor="middle" style="white-space: pre;" direction="ltr" dominant-baseline="text-before-edge">partial load</text></g><g stroke-linecap="round" transform="translate(1553.2546840849363 704.4226190476171) rotate(0 210 83.125)"><path d="M262.5 21 M262.5 21 C300.94 38.06, 337.62 51.99, 367.5 63 M262.5 21 C284.09 30.53, 304.81 38.36, 367.5 63 M367.5 63 C418.55 85.56, 421.7 83.22, 367.5 105 M367.5 63 C421.27 85.03, 421.17 85.31, 367.5 105 M367.5 105 C335.31 116.51, 301.91 129.07, 262.5 145.25 M367.5 105 C344.05 114.8, 322.51 122.26, 262.5 145.25 M262.5 145.25 C209.37 166.44, 211.27 167.87, 157.5 145.25 M262.5 145.25 C210.22 166.84, 212.26 166.83, 157.5 145.25 M157.5 145.25 C123.27 135.38, 92 120.03, 52.5 105 M157.5 145.25 C120.88 132.42, 85.51 119.26, 52.5 105 M52.5 105 C-1.53 83.03, -1.19 82.13, 52.5 63 M52.5 105 C2 85.83, 1.97 84.08, 52.5 63 M52.5 63 C86.25 49.27, 117.73 36.67, 157.5 21 M52.5 63 C89.24 49.03, 125.94 35.13, 157.5 21 M157.5 21 C210.77 1.97, 208.29 1.04, 262.5 21 M157.5 21 C210.45 0.16, 209.17 0.98, 262.5 21" stroke="#000000" stroke-width="1" fill="none"></path></g><g stroke-linecap="round"><g transform="translate(1127.5403983706512 796.1190476190458) rotate(0 218.87329671111485 -3.5277182543064782)"><path d="M-0.94 -0.38 C72.08 -1.28, 365.27 -4.08, 438.69 -4.95 M0.77 -1.62 C73.59 -2.91, 364.71 -6.24, 437.8 -6.68" stroke="#000000" stroke-width="1" fill="none"></path></g><g transform="translate(1127.5403983706512 796.1190476190458) rotate(0 218.87329671111485 -3.5277182543064782)"><path d="M409.08 4.04 C420.65 2.04, 429.29 -2.71, 439.77 -6.17 M408.77 4.69 C417.88 -0.24, 427.36 -2.57, 438.58 -7.37" stroke="#000000" stroke-width="1" fill="none"></path></g><g transform="translate(1127.5403983706512 796.1190476190458) rotate(0 218.87329671111485 -3.5277182543064782)"><path d="M408.89 -16.49 C420.61 -11.38, 429.32 -9.03, 439.77 -6.17 M408.58 -15.83 C417.8 -14.46, 427.34 -10.48, 438.58 -7.37" stroke="#000000" stroke-width="1" fill="none"></path></g></g><mask></mask><g stroke-linecap="round"><g transform="translate(1767.540398370651 400.40476190476) rotate(0 -1.2116998461208368 41.86120641781815)"><path d="M-0.06 1.1 C-0.36 14.89, -2.02 68.37, -2.36 82.01 M-1.56 0.63 C-1.43 14.61, 0.14 69.16, -0.14 83.1" stroke="#000000" stroke-width="1" fill="none"></path></g><g transform="translate(1767.540398370651 400.40476190476) rotate(0 -1.2116998461208368 41.86120641781815)"><path d="M-8.79 53.43 C-9.57 60.96, -5.48 70.76, -0.52 81.75 M-10.75 55.71 C-7.03 65.07, -2.84 74.32, -0.4 83.89" stroke="#000000" stroke-width="1" fill="none"></path></g><g transform="translate(1767.540398370651 400.40476190476) rotate(0 -1.2116998461208368 41.86120641781815)"><path d="M11.73 53.28 C5.8 60.83, 4.74 70.67, -0.52 81.75 M9.77 55.55 C6.69 65.17, 4.09 74.47, -0.4 83.89" stroke="#000000" stroke-width="1" fill="none"></path></g></g><mask></mask><g transform="translate(1786.6676141648054 423.26190476190266) rotate(0 93.72992706298828 12)"><text x="93.72992706298828" y="0" font-family="Virgil, Segoe UI Emoji" font-size="20px" fill="#000000" text-anchor="middle" style="white-space: pre;" direction="ltr" dominant-baseline="text-before-edge">params: capacityId</text></g><g stroke-linecap="round" transform="translate(1246.9689697992228 810.8333333333316) rotate(0 80.71428571428567 26.428571428571445)"><path d="M57.83 0.61 C68.69 -0.81, 83.73 0.14, 95.87 0.97 C108.02 1.8, 121 2.95, 130.72 5.6 C140.45 8.25, 148.99 13.03, 154.21 16.86 C159.43 20.68, 162.78 24.48, 162.04 28.54 C161.31 32.61, 156.65 37.88, 149.79 41.25 C142.94 44.62, 131.74 46.72, 120.91 48.76 C110.07 50.79, 97.09 53.16, 84.8 53.48 C72.5 53.8, 58.5 52.68, 47.12 50.68 C35.74 48.68, 24.31 44.85, 16.52 41.47 C8.73 38.1, 2.48 34.34, 0.39 30.43 C-1.69 26.51, -0.17 21.79, 4.01 17.98 C8.18 14.17, 15.04 10.37, 25.43 7.56 C35.81 4.75, 58.11 2.13, 66.32 1.13 C74.52 0.13, 74.6 1.16, 74.65 1.57 M94.73 0.07 C106.31 0.4, 119.03 3.96, 129.02 6.26 C139.01 8.56, 149.23 10.49, 154.65 13.85 C160.07 17.22, 162.45 22.13, 161.53 26.45 C160.6 30.77, 155.45 35.94, 149.11 39.78 C142.78 43.63, 134.03 47.58, 123.52 49.5 C113.01 51.43, 98.39 50.97, 86.07 51.34 C73.76 51.7, 61.17 53.02, 49.61 51.69 C38.04 50.37, 24.73 46.9, 16.68 43.41 C8.62 39.91, 3.32 34.71, 1.26 30.73 C-0.81 26.74, 0.92 23.18, 4.29 19.5 C7.66 15.82, 12.77 11.71, 21.49 8.63 C30.21 5.54, 44.33 2.27, 56.61 1 C68.89 -0.28, 89.17 1.12, 95.15 0.98 C101.13 0.84, 92.82 -0.28, 92.49 0.16" stroke="#000000" stroke-width="1" fill="none"></path></g><g transform="translate(1286.2796730622267 825.0740826876871) rotate(0 41.32996368408203 12)"><text x="41.32996368408203" y="0" font-family="Virgil, Segoe UI Emoji" font-size="20px" fill="#000000" text-anchor="middle" style="white-space: pre;" direction="ltr" dominant-baseline="text-before-edge">full load</text></g><g transform="translate(1653.343350728352 761.2619047619029) rotate(0 110.33990478515625 24)"><text x="110.33990478515625" y="0" font-family="Virgil, Segoe UI Emoji" font-size="20px" fill="#000000" text-anchor="middle" style="white-space: pre;" direction="ltr" dominant-baseline="text-before-edge">List of all workspaces</text><text x="110.33990478515625" y="24" font-family="Virgil, Segoe UI Emoji" font-size="20px" fill="#000000" text-anchor="middle" style="white-space: pre;" direction="ltr" dominant-baseline="text-before-edge">with exanded options</text></g><g transform="translate(1150.693417867024 749.2619047619029) rotate(0 184.98983764648438 12)"><text x="184.98983764648438" y="0" font-family="Virgil, Segoe UI Emoji" font-size="20px" fill="#000000" text-anchor="middle" style="white-space: pre;" direction="ltr" dominant-baseline="text-before-edge">expand: users, reports, datasets, ... </text></g><g stroke-linecap="round" transform="translate(121.34992218017533 56.26190476190288) rotate(0 145.00000000000006 74.99999999999989)"><path d="M32 0 M32 0 C108.5 0.29, 187.24 0.4, 258 0 M32 0 C91.21 0.3, 149.45 0.94, 258 0 M258 0 C279.47 -0.29, 289.29 9.49, 290 32 M258 0 C279.74 1.12, 289.39 12.36, 290 32 M290 32 C291.95 58.85, 288.45 82.87, 290 118 M290 32 C290.68 56.18, 290.52 78.69, 290 118 M290 118 C290.47 140.55, 278.78 151.43, 258 150 M290 118 C289.22 140.35, 279.96 148.18, 258 150 M258 150 C183.67 150.31, 108.96 152.98, 32 150 M258 150 C167.95 149.01, 79.13 148.85, 32 150 M32 150 C12.4 149.7, 1.95 138.45, 0 118 M32 150 C9.79 147.78, 0.35 139.32, 0 118 M0 118 C-0.93 89.59, -0.73 62.25, 0 32 M0 118 C-0.08 86.43, -0.9 56.59, 0 32 M0 32 C0.64 9.32, 11.83 0.82, 32 0 M0 32 C-0.65 11.35, 11.08 1.23, 32 0" stroke="#000000" stroke-width="1" fill="none"></path></g><g transform="translate(157.59001159667912 108.9285714285694) rotate(0 114.7599105834961 24)"><text x="114.7599105834961" y="0" font-family="Virgil, Segoe UI Emoji" font-size="20px" fill="#000000" text-anchor="middle" style="white-space: pre;" direction="ltr" dominant-baseline="text-before-edge">Admin - WorkspaceInfo </text><text x="114.7599105834961" y="24" font-family="Virgil, Segoe UI Emoji" font-size="20px" fill="#000000" text-anchor="middle" style="white-space: pre;" direction="ltr" dominant-baseline="text-before-edge">GetModifiedWorkspaces</text></g><g stroke-linecap="round"><g transform="translate(259.6832555135089 215.92857142856963) rotate(0 1 71)"><path d="M0 0 C0.33 23.67, 1.67 118.33, 2 142 M0 0 C0.33 23.67, 1.67 118.33, 2 142" stroke="#000000" stroke-width="1" fill="none"></path></g><g transform="translate(259.6832555135089 215.92857142856963) rotate(0 1 71)"><path d="M-8.66 113.96 C-5.6 121.99, -2.55 130.03, 2 142 M-8.66 113.96 C-5.31 122.77, -1.96 131.59, 2 142" stroke="#000000" stroke-width="1" fill="none"></path></g><g transform="translate(259.6832555135089 215.92857142856963) rotate(0 1 71)"><path d="M11.86 113.67 C9.04 121.79, 6.21 129.91, 2 142 M11.86 113.67 C8.76 122.57, 5.66 131.48, 2 142" stroke="#000000" stroke-width="1" fill="none"></path></g></g><mask></mask><g stroke-linecap="round" transform="translate(21.68325551350904 369.9285714285696) rotate(0 239.99999999999994 126)"><path d="M300 31.75 M300 31.75 C334.81 50.17, 369.63 68.6, 420 95.25 M300 31.75 C347.4 56.83, 394.81 81.92, 420 95.25 M420 95.25 C480 127, 480 127, 420 158.75 M420 95.25 C480 127, 480 127, 420 158.75 M420 158.75 C392.54 172.83, 365.07 186.9, 300 220.25 M420 158.75 C383.22 177.6, 346.44 196.45, 300 220.25 M300 220.25 C240 252, 240 252, 180 220.25 M300 220.25 C240 252, 240 252, 180 220.25 M180 220.25 C145.78 202.71, 111.55 185.17, 60 158.75 M180 220.25 C149.76 204.75, 119.51 189.25, 60 158.75 M60 158.75 C0 127, 0 127, 60 95.25 M60 158.75 C0 127, 0 127, 60 95.25 M60 95.25 C101.92 73.07, 143.84 50.88, 180 31.75 M60 95.25 C91.2 78.74, 122.39 62.23, 180 31.75 M180 31.75 C240 0, 240 0, 300 31.75 M180 31.75 C240 0, 240 0, 300 31.75" stroke="#000000" stroke-width="1" fill="none"></path></g><g transform="translate(279.8534215291339 261.9285714285696) rotate(0 175.829833984375 24)"><text x="175.829833984375" y="0" font-family="Virgil, Segoe UI Emoji" font-size="20px" fill="#000000" text-anchor="middle" style="white-space: pre;" direction="ltr" dominant-baseline="text-before-edge">required: modified since 30 minutes </text><text x="175.829833984375" y="24" font-family="Virgil, Segoe UI Emoji" font-size="20px" fill="#000000" text-anchor="middle" style="white-space: pre;" direction="ltr" dominant-baseline="text-before-edge">up to 30 days</text></g><g transform="translate(127.31338246663393 479.9285714285696) rotate(0 136.369873046875 24)"><text x="136.369873046875" y="0" font-family="Virgil, Segoe UI Emoji" font-size="20px" fill="#000000" text-anchor="middle" style="white-space: pre;" direction="ltr" dominant-baseline="text-before-edge">List of modified workspaces</text><text x="136.369873046875" y="24" font-family="Virgil, Segoe UI Emoji" font-size="20px" fill="#000000" text-anchor="middle" style="white-space: pre;" direction="ltr" dominant-baseline="text-before-edge">(list of groupIds)</text></g><g stroke-linecap="round" transform="translate(834.6832555135088 928.9285714285694) rotate(0 145.00000000000006 74.99999999999989)"><path d="M32 0 M32 0 C113.73 -1.21, 197.36 -0.81, 258 0 M32 0 C84.01 0.26, 135.33 -0.29, 258 0 M258 0 C278.43 0.56, 291.64 10.51, 290 32 M258 0 C280.3 -0.14, 289.75 12.88, 290 32 M290 32 C288.93 64.56, 290 95.82, 290 118 M290 32 C288.64 55.91, 288.63 78.5, 290 118 M290 118 C290.59 138.39, 278.45 150.62, 258 150 M290 118 C289.16 137.07, 278.77 150.97, 258 150 M258 150 C173.88 151.43, 90.87 152.8, 32 150 M258 150 C195.19 150.39, 131 149.55, 32 150 M32 150 C10.35 148.13, 1.72 138.67, 0 118 M32 150 C11.88 147.73, 0.72 139.23, 0 118 M0 118 C-0.95 91.91, -1.57 67.29, 0 32 M0 118 C1.12 99.36, 1.01 80.18, 0 32 M0 32 C-0.15 10.9, 9.91 0.57, 32 0 M0 32 C0.01 10.44, 11.37 2.05, 32 0" stroke="#000000" stroke-width="1" fill="none"></path></g><g transform="translate(881.7833226521806 975.9285714285696) rotate(0 91.89993286132812 24)"><text x="91.89993286132812" y="0" font-family="Virgil, Segoe UI Emoji" font-size="20px" fill="#000000" text-anchor="middle" style="white-space: pre;" direction="ltr" dominant-baseline="text-before-edge">Admin - Get Group</text><text x="91.89993286132812" y="24" font-family="Virgil, Segoe UI Emoji" font-size="20px" fill="#000000" text-anchor="middle" style="white-space: pre;" direction="ltr" dominant-baseline="text-before-edge">As Admin</text></g><g stroke-linecap="round"><g transform="translate(1136.8099588023938 997.4562896828762) rotate(0 219.5007284665626 -3.4289814844607918)"><path d="M0.84 -0.43 C74.2 -1.07, 366.13 -4.05, 439.18 -4.79 M-0.18 -1.71 C73.16 -2.58, 365.41 -5.58, 438.55 -6.42" stroke="#000000" stroke-width="1" fill="none"></path></g><g transform="translate(1136.8099588023938 997.4562896828762) rotate(0 219.5007284665626 -3.4289814844607918)"><path d="M409.75 5.16 C418.25 2.63, 424.23 -1.34, 439.21 -6.51 M410.27 4.08 C419.17 -0.15, 428.73 -2.94, 438.17 -6.53" stroke="#000000" stroke-width="1" fill="none"></path></g><g transform="translate(1136.8099588023938 997.4562896828762) rotate(0 219.5007284665626 -3.4289814844607918)"><path d="M409.53 -15.36 C417.92 -13.4, 423.94 -12.87, 439.21 -6.51 M410.04 -16.44 C419.22 -14.08, 428.85 -10.28, 438.17 -6.53" stroke="#000000" stroke-width="1" fill="none"></path></g></g><mask></mask><g stroke-linecap="round" transform="translate(1565.6832555135088 906.8035714285699) rotate(0 210 83.12500000000011)"><path d="M262.5 21 M262.5 21 C300.18 38.11, 336.13 50.85, 367.5 63 M262.5 21 C287.43 30.86, 312.98 40.9, 367.5 63 M367.5 63 C418.99 83.09, 419.03 85.9, 367.5 105 M367.5 63 C421.6 84.69, 421.58 82.79, 367.5 105 M367.5 105 C333.47 116.99, 302.16 129.77, 262.5 145.25 M367.5 105 C344.32 113.8, 322.06 122.02, 262.5 145.25 M262.5 145.25 C211.51 166.55, 211.72 167.35, 157.5 145.25 M262.5 145.25 C211.5 166.04, 207.84 167.96, 157.5 145.25 M157.5 145.25 C117.73 132.02, 76.97 115.67, 52.5 105 M157.5 145.25 C136.19 137.35, 113.5 127.15, 52.5 105 M52.5 105 C1.15 85.2, 1.31 82.38, 52.5 63 M52.5 105 C-0.21 82.65, -1.09 86.23, 52.5 63 M52.5 63 C89.9 49.27, 127.26 33.69, 157.5 21 M52.5 63 C82.8 51.08, 114.04 37.42, 157.5 21 M157.5 21 C211.74 -0.95, 209.52 0.17, 262.5 21 M157.5 21 C209.86 -1.2, 211.89 0.24, 262.5 21" stroke="#000000" stroke-width="1" fill="none"></path></g><g transform="translate(1692.5233357747393 965.8660714285699) rotate(0 83.15991973876953 24)"><text x="83.15991973876953" y="0" font-family="Virgil, Segoe UI Emoji" font-size="20px" fill="#000000" text-anchor="middle" style="white-space: pre;" direction="ltr" dominant-baseline="text-before-edge">Workspace with </text><text x="83.15991973876953" y="24" font-family="Virgil, Segoe UI Emoji" font-size="20px" fill="#000000" text-anchor="middle" style="white-space: pre;" direction="ltr" dominant-baseline="text-before-edge">expanded options</text></g><g stroke-linecap="round" transform="translate(1256.968969799223 1009.1666666666648) rotate(0 95 40.999999999999886)"><path d="M72.63 0.63 C85.16 -1.29, 102.26 -0.47, 115.78 1.02 C129.31 2.51, 143.16 6.05, 153.79 9.55 C164.43 13.04, 173.63 16.92, 179.58 22 C185.54 27.07, 189.42 34.11, 189.51 40.01 C189.6 45.92, 185.83 52.15, 180.11 57.45 C174.4 62.75, 165.69 67.93, 155.23 71.82 C144.77 75.71, 130.67 79.18, 117.36 80.81 C104.06 82.43, 88.82 82.89, 75.4 81.58 C61.97 80.26, 47.58 76.51, 36.8 72.92 C26.03 69.32, 16.83 65.17, 10.73 59.99 C4.62 54.81, 0.35 47.91, 0.19 41.85 C0.02 35.78, 3.97 28.99, 9.75 23.62 C15.53 18.25, 22.81 13.44, 34.86 9.62 C46.9 5.81, 72.47 2.13, 82.01 0.71 C91.55 -0.71, 91.97 0.63, 92.1 1.12 M50.05 4.54 C60.65 1.21, 76.36 -0.22, 89.92 -0.55 C103.47 -0.87, 118.62 0.03, 131.4 2.57 C144.17 5.11, 157.43 10.06, 166.58 14.68 C175.74 19.31, 182.88 24.73, 186.32 30.32 C189.76 35.9, 189.84 42.33, 187.23 48.18 C184.62 54.04, 178.63 60.72, 170.66 65.42 C162.69 70.12, 151.48 73.64, 139.42 76.37 C127.37 79.1, 111.81 81.45, 98.34 81.81 C84.88 82.17, 71.27 80.82, 58.64 78.53 C46 76.23, 31.92 72.53, 22.53 68.05 C13.13 63.57, 5.69 57.57, 2.26 51.63 C-1.18 45.68, -0.93 38.36, 1.93 32.38 C4.79 26.39, 11.32 20.24, 19.39 15.73 C27.46 11.22, 44.95 6.94, 50.34 5.29 C55.74 3.65, 51.19 5.26, 51.78 5.84" stroke="#000000" stroke-width="1" fill="none"></path></g><g transform="translate(1293.223871668044 1038.1752886380164) rotate(0 58.56995391845703 12.000000000000114)"><text x="58.56995391845703" y="0" font-family="Virgil, Segoe UI Emoji" font-size="20px" fill="#000000" text-anchor="middle" style="white-space: pre;" direction="ltr" dominant-baseline="text-before-edge">partial load</text></g><g stroke-linecap="round"><g transform="translate(255.51658884684264 611.2619047619033) rotate(0 -1.6666666666666288 196.66666666666652)"><path d="M0 0 C-0.56 65.56, -2.78 327.78, -3.33 393.33 M0 0 C-0.56 65.56, -2.78 327.78, -3.33 393.33" stroke="#000000" stroke-width="1" fill="none"></path></g></g><mask></mask><g stroke-linecap="round"><g transform="translate(254.3499221801759 1002.5952380952366) rotate(0 288.9999999999999 -4)"><path d="M0 0 C96.33 -1.33, 481.67 -6.67, 578 -8 M0 0 C96.33 -1.33, 481.67 -6.67, 578 -8" stroke="#000000" stroke-width="1" fill="none"></path></g><g transform="translate(254.3499221801759 1002.5952380952366) rotate(0 288.9999999999999 -4)"><path d="M549.95 2.65 C555.75 0.45, 561.55 -1.75, 578 -8 M549.95 2.65 C560.03 -1.17, 570.1 -5, 578 -8" stroke="#000000" stroke-width="1" fill="none"></path></g><g transform="translate(254.3499221801759 1002.5952380952366) rotate(0 288.9999999999999 -4)"><path d="M549.67 -17.87 C555.53 -15.83, 561.38 -13.79, 578 -8 M549.67 -17.87 C559.84 -14.33, 570.02 -10.78, 578 -8" stroke="#000000" stroke-width="1" fill="none"></path></g></g><mask></mask><g transform="translate(278.9400863647462 794.5952380952366) rotate(0 161.4098358154297 12)"><text x="161.4098358154297" y="0" font-family="Virgil, Segoe UI Emoji" font-size="20px" fill="#000000" text-anchor="middle" style="white-space: pre;" direction="ltr" dominant-baseline="text-before-edge">loop through modified workspaces</text></g><g transform="translate(10 778.5952380952366) rotate(0 104.34992218017578 24)"><text x="104.34992218017578" y="0" font-family="Virgil, Segoe UI Emoji" font-size="20px" fill="#000000" text-anchor="middle" style="white-space: pre;" direction="ltr" dominant-baseline="text-before-edge">apply change only to </text><text x="104.34992218017578" y="24" font-family="Virgil, Segoe UI Emoji" font-size="20px" fill="#000000" text-anchor="middle" style="white-space: pre;" direction="ltr" dominant-baseline="text-before-edge">modified workspaces</text></g><g transform="translate(1147.000129699707 940.5952380952366) rotate(0 217.34979248046875 12)"><text x="217.34979248046875" y="0" font-family="Virgil, Segoe UI Emoji" font-size="20px" fill="#000000" text-anchor="middle" style="white-space: pre;" direction="ltr" dominant-baseline="text-before-edge">required: groupId. Expand: users, reports, ...</text></g><g stroke-linecap="round" transform="translate(835.3499221801756 1147.5952380952363) rotate(0 145.00000000000006 75)"><path d="M32 0 M32 0 C110.46 -0.47, 185.98 0.63, 258 0 M32 0 C83.26 2.35, 134.64 2.15, 258 0 M258 0 C280.84 0.15, 288.55 10.73, 290 32 M258 0 C278.41 -2.19, 289.27 9.3, 290 32 M290 32 C288.33 60.25, 289.06 90.89, 290 118 M290 32 C288.85 54.32, 289.96 78.36, 290 118 M290 118 C288.38 141.06, 280.21 151.4, 258 150 M290 118 C289.77 141.54, 279.59 149.45, 258 150 M258 150 C181.88 149.93, 107.5 149.71, 32 150 M258 150 C172.23 152.25, 87.2 152.16, 32 150 M32 150 C12.53 151.82, -1.75 138.46, 0 118 M32 150 C10.71 150.13, 1.56 139.14, 0 118 M0 118 C2.06 93.39, 0.6 71.02, 0 32 M0 118 C-0.47 94.4, 0.24 69.53, 0 32 M0 32 C1.58 9.27, 10.96 -0.49, 32 0 M0 32 C-1.39 9.3, 8.63 -0.73, 32 0" stroke="#000000" stroke-width="1" fill="none"></path></g><g transform="translate(870.5900115966796 1198.5952380952367) rotate(0 109.7599105834961 24)"><text x="109.7599105834961" y="0" font-family="Virgil, Segoe UI Emoji" font-size="20px" fill="#000000" text-anchor="middle" style="white-space: pre;" direction="ltr" dominant-baseline="text-before-edge">Admin - WorkspaceInfo</text><text x="109.7599105834961" y="24" font-family="Virgil, Segoe UI Emoji" font-size="20px" fill="#000000" text-anchor="middle" style="white-space: pre;" direction="ltr" dominant-baseline="text-before-edge">PostWorkspaceInfo</text></g><g stroke-linecap="round"><g transform="translate(252.3499221801759 998.5952380952366) rotate(0 -1 111.99999999999977)"><path d="M0 0 C-0.33 37.33, -1.67 186.67, -2 224 M0 0 C-0.33 37.33, -1.67 186.67, -2 224" stroke="#000000" stroke-width="1" fill="none"></path></g></g><mask></mask><g stroke-linecap="round"><g transform="translate(248.3499221801759 1224.5952380952363) rotate(0 291.9999999999999 -2.9999999999997726)"><path d="M0 0 C97.33 -1, 486.67 -5, 584 -6 M0 0 C97.33 -1, 486.67 -5, 584 -6" stroke="#000000" stroke-width="1" fill="none"></path></g><g transform="translate(248.3499221801759 1224.5952380952363) rotate(0 291.9999999999999 -2.9999999999997726)"><path d="M555.92 4.55 C566.75 0.48, 577.58 -3.59, 584 -6 M555.92 4.55 C561.98 2.27, 568.04 0, 584 -6" stroke="#000000" stroke-width="1" fill="none"></path></g><g transform="translate(248.3499221801759 1224.5952380952363) rotate(0 291.9999999999999 -2.9999999999997726)"><path d="M555.71 -15.97 C566.62 -12.12, 577.53 -8.28, 584 -6 M555.71 -15.97 C561.81 -13.82, 567.92 -11.67, 584 -6" stroke="#000000" stroke-width="1" fill="none"></path></g></g><mask></mask><g stroke-linecap="round" transform="translate(782.3499221801757 1386.5952380952367) rotate(0 197 78.99999999999977)"><path d="M247.5 19.75 M247.5 19.75 C277.98 32.16, 308.47 44.58, 344.5 59.25 M247.5 19.75 C284.08 34.65, 320.66 49.54, 344.5 59.25 M344.5 59.25 C394 79, 394 79, 344.5 98.75 M344.5 59.25 C394 79, 394 79, 344.5 98.75 M344.5 98.75 C317.18 109.87, 289.86 121, 247.5 138.25 M344.5 98.75 C324.03 107.09, 303.56 115.42, 247.5 138.25 M247.5 138.25 C198 158, 198 158, 148.5 138.25 M247.5 138.25 C198 158, 198 158, 148.5 138.25 M148.5 138.25 C115.2 124.97, 81.91 111.68, 49.5 98.75 M148.5 138.25 C124.28 128.58, 100.05 118.92, 49.5 98.75 M49.5 98.75 C0 79, 0 79, 49.5 59.25 M49.5 98.75 C0 79, 0 79, 49.5 59.25 M49.5 59.25 C78.16 47.81, 106.83 36.38, 148.5 19.75 M49.5 59.25 C86.58 44.46, 123.65 29.66, 148.5 19.75 M148.5 19.75 C198 0, 198 0, 247.5 19.75 M148.5 19.75 C198 0, 198 0, 247.5 19.75" stroke="#000000" stroke-width="1" fill="none"></path></g><g stroke-linecap="round"><g transform="translate(972.3499221801757 1306.5952380952363) rotate(0 1 46)"><path d="M0 0 C0.33 15.33, 1.67 76.67, 2 92 M0 0 C0.33 15.33, 1.67 76.67, 2 92" stroke="#000000" stroke-width="1" fill="none"></path></g><g transform="translate(972.3499221801757 1306.5952380952363) rotate(0 1 46)"><path d="M-8.87 64.04 C-6.39 70.43, -3.9 76.82, 2 92 M-8.87 64.04 C-4.87 74.33, -0.87 84.63, 2 92" stroke="#000000" stroke-width="1" fill="none"></path></g><g transform="translate(972.3499221801757 1306.5952380952363) rotate(0 1 46)"><path d="M11.65 63.59 C9.44 70.09, 7.24 76.58, 2 92 M11.65 63.59 C8.09 74.05, 4.54 84.51, 2 92" stroke="#000000" stroke-width="1" fill="none"></path></g></g><mask></mask><g transform="translate(940.7699432373046 1452.5952380952363) rotate(0 33.579978942871094 12)"><text x="33.579978942871094" y="0" font-family="Virgil, Segoe UI Emoji" font-size="20px" fill="#000000" text-anchor="middle" style="white-space: pre;" direction="ltr" dominant-baseline="text-before-edge">ScanId</text></g><g stroke-linecap="round" transform="translate(1237.3499221801758 1383.5952380952367) rotate(0 145.00000000000006 74.99999999999977)"><path d="M32 0 M32 0 C99.01 0.6, 166.58 -0.01, 258 0 M32 0 C87.08 -1.87, 143.67 -0.66, 258 0 M258 0 C277.37 1.97, 290.45 8.7, 290 32 M258 0 C278.52 1.61, 290.87 8.68, 290 32 M290 32 C289.2 58.39, 289.31 80.58, 290 118 M290 32 C289.08 63.71, 288.84 97.56, 290 118 M290 118 C288.47 139.83, 279.65 148.93, 258 150 M290 118 C290.39 139.06, 279.64 150.61, 258 150 M258 150 C207.01 149.04, 158.41 150.66, 32 150 M258 150 C167.81 149.22, 78.03 149.38, 32 150 M32 150 C8.74 151.6, 0.6 139.22, 0 118 M32 150 C12.19 149.65, 1.62 140.43, 0 118 M0 118 C-0.02 90.42, -1.52 63.47, 0 32 M0 118 C-0.3 86.58, -1.17 57.21, 0 32 M0 32 C0.24 11.14, 10.72 -1.14, 32 0 M0 32 C1.89 12.5, 10.14 0.09, 32 0" stroke="#000000" stroke-width="1" fill="none"></path></g><g transform="translate(1270.5900115966797 1434.5952380952363) rotate(0 109.7599105834961 24)"><text x="109.7599105834961" y="0" font-family="Virgil, Segoe UI Emoji" font-size="20px" fill="#000000" text-anchor="middle" style="white-space: pre;" direction="ltr" dominant-baseline="text-before-edge">Admin - WorkspaceInfo</text><text x="109.7599105834961" y="24" font-family="Virgil, Segoe UI Emoji" font-size="20px" fill="#000000" text-anchor="middle" style="white-space: pre;" direction="ltr" dominant-baseline="text-before-edge">GetScanStatus</text></g><g stroke-linecap="round"><g transform="translate(1164.3499221801758 1466.5952380952363) rotate(0 33 -1.5410958904108156)"><path d="M0 0 C11 -0.51, 55 -2.57, 66 -3.08 M0 0 C11 -0.51, 55 -2.57, 66 -3.08" stroke="#000000" stroke-width="1" fill="none"></path></g><g transform="translate(1164.3499221801758 1466.5952380952363) rotate(0 33 -1.5410958904108156)"><path d="M38.32 8.48 C48.17 4.37, 58.01 0.26, 66 -3.08 M38.32 8.48 C48.9 4.06, 59.47 -0.35, 66 -3.08" stroke="#000000" stroke-width="1" fill="none"></path></g><g transform="translate(1164.3499221801758 1466.5952380952363) rotate(0 33 -1.5410958904108156)"><path d="M37.36 -12.02 C47.55 -8.84, 57.74 -5.66, 66 -3.08 M37.36 -12.02 C48.3 -8.6, 59.25 -5.19, 66 -3.08" stroke="#000000" stroke-width="1" fill="none"></path></g></g><mask></mask><g stroke-linecap="round" transform="translate(1206.3499221801758 1624.5952380952363) rotate(0 173 88)"><path d="M217.5 22.25 M217.5 22.25 C238.77 33.39, 260.04 44.52, 302.5 66.75 M217.5 22.25 C244.86 36.57, 272.22 50.9, 302.5 66.75 M302.5 66.75 C346 89, 346 89, 302.5 111.25 M302.5 66.75 C346 89, 346 89, 302.5 111.25 M302.5 111.25 C274.78 125.11, 247.05 138.97, 217.5 153.75 M302.5 111.25 C279.55 122.72, 256.6 134.2, 217.5 153.75 M217.5 153.75 C174 176, 174 176, 130.5 153.75 M217.5 153.75 C174 176, 174 176, 130.5 153.75 M130.5 153.75 C108.45 142.98, 86.4 132.21, 43.5 111.25 M130.5 153.75 C98.08 137.91, 65.66 122.08, 43.5 111.25 M43.5 111.25 C0 89, 0 89, 43.5 66.75 M43.5 111.25 C0 89, 0 89, 43.5 66.75 M43.5 66.75 C76.42 49.91, 109.35 33.07, 130.5 22.25 M43.5 66.75 C66.76 54.85, 90.02 42.96, 130.5 22.25 M130.5 22.25 C174 0, 174 0, 217.5 22.25 M130.5 22.25 C174 0, 174 0, 217.5 22.25" stroke="#000000" stroke-width="1" fill="none"></path></g><g transform="translate(1267.5200119018555 1706.5952380952367) rotate(0 106.82991027832031 12)"><text x="106.82991027832031" y="0" font-family="Virgil, Segoe UI Emoji" font-size="20px" fill="#000000" text-anchor="middle" style="white-space: pre;" direction="ltr" dominant-baseline="text-before-edge">status = "Succeeded"</text></g><g stroke-linecap="round" transform="translate(1624.9213507516047 1643.4999999999977) rotate(0 145.0000000000001 75)"><path d="M32 0 M32 0 C114.97 0.83, 198.55 0.55, 258 0 M32 0 C79.73 1.56, 126.07 0.64, 258 0 M258 0 C277.65 -1.47, 289.01 10.81, 290 32 M258 0 C281.01 -0.93, 289.17 9.87, 290 32 M290 32 C290.1 51.93, 290.87 67.86, 290 118 M290 32 C289.77 54.64, 291.54 78.96, 290 118 M290 118 C289.3 139.09, 281.06 148.34, 258 150 M290 118 C288.43 140.98, 279.64 150.99, 258 150 M258 150 C180.53 151.48, 104.37 151.13, 32 150 M258 150 C204.06 148.82, 152.08 149.91, 32 150 M32 150 C12.16 149.05, 1.4 139.25, 0 118 M32 150 C9.68 147.7, 1.76 139.82, 0 118 M0 118 C-0.37 89.08, 1.16 58.32, 0 32 M0 118 C-1.46 87.74, 0.11 55.31, 0 32 M0 32 C0.32 9.72, 11.58 0.15, 32 0 M0 32 C-1.56 11.26, 9.3 -0.46, 32 0" stroke="#000000" stroke-width="1" fill="none"></path></g><g stroke-linecap="round"><g transform="translate(1369.9213507516047 1540.4999999999982) rotate(0 2 49)"><path d="M0 0 C0.67 16.33, 3.33 81.67, 4 98 M0 0 C0.67 16.33, 3.33 81.67, 4 98" stroke="#000000" stroke-width="1" fill="none"></path></g><g transform="translate(1369.9213507516047 1540.4999999999982) rotate(0 2 49)"><path d="M-7.4 70.25 C-5.07 75.93, -2.74 81.61, 4 98 M-7.4 70.25 C-3.32 80.18, 0.76 90.11, 4 98" stroke="#000000" stroke-width="1" fill="none"></path></g><g transform="translate(1369.9213507516047 1540.4999999999982) rotate(0 2 49)"><path d="M13.1 69.41 C11.24 75.26, 9.38 81.11, 4 98 M13.1 69.41 C9.84 79.65, 6.59 89.88, 4 98" stroke="#000000" stroke-width="1" fill="none"></path></g></g><mask></mask><g stroke-linecap="round"><g transform="translate(1539.9213507516047 1714.4999999999982) rotate(0 43 1)"><path d="M0 0 C14.33 0.33, 71.67 1.67, 86 2 M0 0 C14.33 0.33, 71.67 1.67, 86 2" stroke="#000000" stroke-width="1" fill="none"></path></g><g transform="translate(1539.9213507516047 1714.4999999999982) rotate(0 43 1)"><path d="M57.58 11.6 C66.27 8.67, 74.96 5.73, 86 2 M57.58 11.6 C63.28 9.68, 68.98 7.75, 86 2" stroke="#000000" stroke-width="1" fill="none"></path></g><g transform="translate(1539.9213507516047 1714.4999999999982) rotate(0 43 1)"><path d="M58.06 -8.91 C66.6 -5.58, 75.14 -2.24, 86 2 M58.06 -8.91 C63.66 -6.72, 69.26 -4.54, 86 2" stroke="#000000" stroke-width="1" fill="none"></path></g></g><mask></mask><g transform="translate(1660.1614401681086 1692.4999999999977) rotate(0 109.7599105834961 24)"><text x="109.7599105834961" y="0" font-family="Virgil, Segoe UI Emoji" font-size="20px" fill="#000000" text-anchor="middle" style="white-space: pre;" direction="ltr" dominant-baseline="text-before-edge">Admin - WorkspaceInfo</text><text x="109.7599105834961" y="24" font-family="Virgil, Segoe UI Emoji" font-size="20px" fill="#000000" text-anchor="middle" style="white-space: pre;" direction="ltr" dominant-baseline="text-before-edge">GetScanResult</text></g><g stroke-linecap="round" transform="translate(2333.9213507516038 1539.7083333333312) rotate(0 210 162.12500000000023)"><path d="M262.5 40.75 M262.5 40.75 C297.89 71.2, 336.79 99.04, 367.5 122.25 M262.5 40.75 C288.69 62.61, 316.54 83.57, 367.5 122.25 M367.5 122.25 C418.88 164.22, 420.01 163.81, 367.5 203.75 M367.5 122.25 C418.97 161.03, 418.82 161.94, 367.5 203.75 M367.5 203.75 C335.44 230.9, 300.16 254.32, 262.5 283.5 M367.5 203.75 C343.27 223.36, 317.1 242.87, 262.5 283.5 M262.5 283.5 C210.29 323.94, 210.8 323.08, 157.5 283.5 M262.5 283.5 C208.94 325.22, 210.62 325.85, 157.5 283.5 M157.5 283.5 C120.47 256.6, 89.6 231.55, 52.5 203.75 M157.5 283.5 C126.72 260.69, 96.25 236.01, 52.5 203.75 M52.5 203.75 C-0.45 164.01, -1.12 163.3, 52.5 122.25 M52.5 203.75 C0.46 162, 0.09 161.19, 52.5 122.25 M52.5 122.25 C94.45 90.01, 132.55 57.87, 157.5 40.75 M52.5 122.25 C74.77 105.83, 97.19 87.29, 157.5 40.75 M157.5 40.75 C208.63 -1.75, 211.69 0.95, 262.5 40.75 M157.5 40.75 C211.47 -0.93, 212.18 0.25, 262.5 40.75" stroke="#000000" stroke-width="1" fill="none"></path></g><g stroke-linecap="round"><g transform="translate(1940.2762379696492 1710.3950840296511) rotate(0 195.88426480914677 -4.5465828643350505)"><path d="M0 0 C65.29 -1.52, 326.47 -7.58, 391.77 -9.09 M0 0 C65.29 -1.52, 326.47 -7.58, 391.77 -9.09" stroke="#000000" stroke-width="1" fill="none"></path></g><g transform="translate(1940.2762379696492 1710.3950840296511) rotate(0 195.88426480914677 -4.5465828643350505)"><path d="M363.82 1.82 C370.3 -0.71, 376.77 -3.24, 391.77 -9.09 M363.82 1.82 C370.83 -0.92, 377.84 -3.65, 391.77 -9.09" stroke="#000000" stroke-width="1" fill="none"></path></g><g transform="translate(1940.2762379696492 1710.3950840296511) rotate(0 195.88426480914677 -4.5465828643350505)"><path d="M363.35 -18.7 C369.93 -16.47, 376.52 -14.25, 391.77 -9.09 M363.35 -18.7 C370.47 -16.29, 377.6 -13.88, 391.77 -9.09" stroke="#000000" stroke-width="1" fill="none"></path></g></g><mask></mask><g transform="translate(344.95150211879206 1181.4999999999977) rotate(0 195.9698486328125 12)"><text x="195.9698486328125" y="0" font-family="Virgil, Segoe UI Emoji" font-size="20px" fill="#000000" text-anchor="middle" style="white-space: pre;" direction="ltr" dominant-baseline="text-before-edge">up to 100 workspaces per scan request</text></g><g transform="translate(2391.7114813668386 1668.1666666666647) rotate(0 147.20986938476562 12)"><text x="147.20986938476562" y="0" font-family="Virgil, Segoe UI Emoji" font-size="20px" fill="#000000" text-anchor="middle" style="white-space: pre;" direction="ltr" dominant-baseline="text-before-edge">List of workspaces metadata</text></g><g stroke-linecap="round" transform="translate(2034.2546840849373 1720.4999999999982) rotate(0 95 41)"><path d="M76.24 -0.18 C89.01 -1.98, 106.38 -0.19, 119.82 1.42 C133.26 3.02, 146.53 5.69, 156.86 9.45 C167.2 13.2, 176.43 18.46, 181.83 23.93 C187.23 29.41, 189.82 36.34, 189.25 42.31 C188.69 48.29, 184.57 54.37, 178.43 59.78 C172.3 65.19, 163.28 71.17, 152.45 74.79 C141.63 78.41, 127.16 80.45, 113.5 81.52 C99.84 82.58, 83.86 82.75, 70.47 81.19 C57.09 79.63, 43.7 76.24, 33.21 72.15 C22.72 68.05, 13.15 61.95, 7.53 56.61 C1.91 51.27, -1.1 45.93, -0.5 40.11 C0.1 34.3, 4.74 27.23, 11.14 21.73 C17.53 16.23, 24.02 10.75, 37.86 7.12 C51.71 3.49, 82.14 1.02, 94.21 -0.06 C106.28 -1.15, 110.38 -0.06, 110.31 0.63 M125.74 1.02 C138.67 2.33, 153.21 8.69, 162.71 12.8 C172.21 16.92, 178.25 20.28, 182.74 25.72 C187.24 31.17, 190.9 39.57, 189.68 45.48 C188.47 51.39, 182.58 56.41, 175.44 61.18 C168.3 65.94, 158.03 70.46, 146.83 74.07 C135.63 77.68, 121.69 81.99, 108.25 82.85 C94.81 83.72, 79.42 81.08, 66.18 79.24 C52.93 77.39, 38.65 76, 28.78 71.78 C18.91 67.55, 11.91 59.84, 6.96 53.88 C2 47.91, -2.06 41.79, -0.93 36 C0.2 30.21, 6.28 24.19, 13.73 19.14 C21.18 14.09, 31.99 8.91, 43.77 5.7 C55.54 2.49, 70.59 0.71, 84.39 -0.12 C98.2 -0.95, 119.89 0.17, 126.58 0.74 C133.27 1.32, 125.13 2.46, 124.53 3.34" stroke="#000000" stroke-width="1" fill="none"></path></g><g transform="translate(2070.5095859537582 1749.5086219713498) rotate(0 58.56995391845703 12)"><text x="58.56995391845703" y="0" font-family="Virgil, Segoe UI Emoji" font-size="20px" fill="#000000" text-anchor="middle" style="white-space: pre;" direction="ltr" dominant-baseline="text-before-edge">partial load</text></g><g transform="translate(2364.2748409452897 1707.8333333333321) rotate(0 172.97984313964832 12)"><text x="172.97984313964844" y="0" font-family="Virgil, Segoe UI Emoji" font-size="20px" fill="#000000" text-anchor="middle" style="white-space: pre;" direction="ltr" dominant-baseline="text-before-edge">(datasources, datasets, users, ...)</text></g><g stroke-linecap="round" transform="translate(3009.088017418268 10) rotate(0 79 85.99999999999994)"><path d="M32 0 M32 0 C68.29 0, 104.57 0, 126 0 M32 0 C57.17 0, 82.34 0, 126 0 M126 0 C147.33 0, 158 10.67, 158 32 M126 0 C147.33 0, 158 10.67, 158 32 M158 32 C158 69.21, 158 106.42, 158 140 M158 32 C158 54.55, 158 77.1, 158 140 M158 140 C158 161.33, 147.33 172, 126 172 M158 140 C158 161.33, 147.33 172, 126 172 M126 172 C105.41 172, 84.82 172, 32 172 M126 172 C105.11 172, 84.21 172, 32 172 M32 172 C10.67 172, 0 161.33, 0 140 M32 172 C10.67 172, 0 161.33, 0 140 M0 140 C0 116.26, 0 92.52, 0 32 M0 140 C0 106.76, 0 73.51, 0 32 M0 32 C0 10.67, 10.67 0, 32 0 M0 32 C0 10.67, 10.67 0, 32 0" stroke="#000000" stroke-width="1" fill="none"></path></g><g transform="translate(3013.7180833362368 77.99999999999989) rotate(0 75.36993408203125 24)"><text x="75.36993408203125" y="0" font-family="Virgil, Segoe UI Emoji" font-size="20px" fill="#000000" text-anchor="middle" style="white-space: pre;" direction="ltr" dominant-baseline="text-before-edge">Activity Events</text><text x="75.36993408203125" y="24" font-family="Virgil, Segoe UI Emoji" font-size="20px" fill="#000000" text-anchor="middle" style="white-space: pre;" direction="ltr" dominant-baseline="text-before-edge">Storage</text></g><g stroke-linecap="round"><g transform="translate(1981.088017418268 123.99999999999989) rotate(0 513.1152462317457 1.0240087881988984)"><path d="M0 0 C171.04 0.34, 855.19 1.71, 1026.23 2.05 M0 0 C171.04 0.34, 855.19 1.71, 1026.23 2.05" stroke="#000000" stroke-width="1" fill="none"></path></g><g transform="translate(1981.088017418268 123.99999999999989) rotate(0 513.1152462317457 1.0240087881988984)"><path d="M998.02 12.25 C1007.65 8.77, 1017.27 5.29, 1026.23 2.05 M998.02 12.25 C1008.61 8.42, 1019.21 4.59, 1026.23 2.05" stroke="#000000" stroke-width="1" fill="none"></path></g><g transform="translate(1981.088017418268 123.99999999999989) rotate(0 513.1152462317457 1.0240087881988984)"><path d="M998.06 -8.27 C1007.67 -4.75, 1017.29 -1.23, 1026.23 2.05 M998.06 -8.27 C1008.64 -4.39, 1019.22 -0.52, 1026.23 2.05" stroke="#000000" stroke-width="1" fill="none"></path></g></g><mask></mask><g stroke-linecap="round" transform="translate(3012.088017418268 209.9999999999999) rotate(0 79 85.99999999999989)"><path d="M32 0 M32 0 C61.94 0, 91.89 0, 126 0 M32 0 C62.42 0, 92.83 0, 126 0 M126 0 C147.33 0, 158 10.67, 158 32 M126 0 C147.33 0, 158 10.67, 158 32 M158 32 C158 56.78, 158 81.55, 158 140 M158 32 C158 58.94, 158 85.89, 158 140 M158 140 C158 161.33, 147.33 172, 126 172 M158 140 C158 161.33, 147.33 172, 126 172 M126 172 C99.69 172, 73.39 172, 32 172 M126 172 C99.71 172, 73.42 172, 32 172 M32 172 C10.67 172, 0 161.33, 0 140 M32 172 C10.67 172, 0 161.33, 0 140 M0 140 C0 110.45, 0 80.89, 0 32 M0 140 C0 103.41, 0 66.81, 0 32 M0 32 C0 10.67, 10.67 0, 32 0 M0 32 C0 10.67, 10.67 0, 32 0" stroke="#000000" stroke-width="1" fill="none"></path></g><g transform="translate(3035.4280671619204 271.9999999999999) rotate(0 55.659950256347656 24)"><text x="55.659950256347656" y="0" font-family="Virgil, Segoe UI Emoji" font-size="20px" fill="#000000" text-anchor="middle" style="white-space: pre;" direction="ltr" dominant-baseline="text-before-edge">Capacities </text><text x="55.659950256347656" y="24" font-family="Virgil, Segoe UI Emoji" font-size="20px" fill="#000000" text-anchor="middle" style="white-space: pre;" direction="ltr" dominant-baseline="text-before-edge">Storage</text></g><g stroke-linecap="round"><g transform="translate(1977.088017418268 311.9999999999999) rotate(0 518 0)"><path d="M0 0 C172.67 0, 863.33 0, 1036 0 M0 0 C172.67 0, 863.33 0, 1036 0" stroke="#000000" stroke-width="1" fill="none"></path></g><g transform="translate(1977.088017418268 311.9999999999999) rotate(0 518 0)"><path d="M1007.81 10.26 C1018.78 6.27, 1029.75 2.27, 1036 0 M1007.81 10.26 C1016.57 7.07, 1025.32 3.89, 1036 0" stroke="#000000" stroke-width="1" fill="none"></path></g><g transform="translate(1977.088017418268 311.9999999999999) rotate(0 518 0)"><path d="M1007.81 -10.26 C1018.78 -6.27, 1029.75 -2.27, 1036 0 M1007.81 -10.26 C1016.57 -7.07, 1025.32 -3.89, 1036 0" stroke="#000000" stroke-width="1" fill="none"></path></g></g><mask></mask><g transform="translate(2325.0381211780336 85.99999999999989) rotate(0 122.04989624023438 12)"><text x="122.04989624023438" y="0" font-family="Virgil, Segoe UI Emoji" font-size="20px" fill="#000000" text-anchor="middle" style="white-space: pre;" direction="ltr" dominant-baseline="text-before-edge">partion by `CreateDate`</text></g><g transform="translate(2342.518109276178 151.9999999999999) rotate(0 86.56990814208984 12)"><text x="86.56990814208984" y="0" font-family="Virgil, Segoe UI Emoji" font-size="20px" fill="#000000" text-anchor="middle" style="white-space: pre;" direction="ltr" dominant-baseline="text-before-edge">backfill supported</text></g><g stroke-linecap="round" transform="translate(2313.088017418268 135.9999999999999) rotate(0 113 28)"><path d="M226 28 C226 28.98, 225.79 29.96, 225.38 30.93 C224.97 31.9, 224.35 32.87, 223.53 33.82 C222.71 34.78, 221.69 35.72, 220.47 36.65 C219.25 37.58, 217.83 38.5, 216.23 39.39 C214.63 40.28, 212.83 41.16, 210.86 42 C208.89 42.84, 206.73 43.67, 204.42 44.46 C202.1 45.25, 199.61 46.01, 196.98 46.74 C194.34 47.46, 191.54 48.16, 188.61 48.81 C185.69 49.46, 182.61 50.08, 179.42 50.65 C176.23 51.23, 172.91 51.76, 169.5 52.25 C166.09 52.74, 162.56 53.18, 158.96 53.58 C155.36 53.98, 151.66 54.33, 147.92 54.63 C144.17 54.93, 140.35 55.19, 136.49 55.39 C132.64 55.59, 128.73 55.74, 124.81 55.85 C120.9 55.95, 116.94 56, 113 56 C109.06 56, 105.1 55.95, 101.19 55.85 C97.27 55.74, 93.36 55.59, 89.51 55.39 C85.65 55.19, 81.83 54.93, 78.08 54.63 C74.34 54.33, 70.64 53.98, 67.04 53.58 C63.44 53.18, 59.91 52.74, 56.5 52.25 C53.09 51.76, 49.77 51.23, 46.58 50.65 C43.39 50.08, 40.31 49.46, 37.39 48.81 C34.46 48.16, 31.66 47.46, 29.02 46.74 C26.39 46.01, 23.9 45.25, 21.58 44.46 C19.27 43.67, 17.11 42.84, 15.14 42 C13.17 41.16, 11.37 40.28, 9.77 39.39 C8.17 38.5, 6.75 37.58, 5.53 36.65 C4.31 35.72, 3.29 34.78, 2.47 33.82 C1.65 32.87, 1.03 31.9, 0.62 30.93 C0.21 29.96, 0 28.98, 0 28 C0 27.02, 0.21 26.04, 0.62 25.07 C1.03 24.1, 1.65 23.13, 2.47 22.18 C3.29 21.22, 4.31 20.28, 5.53 19.35 C6.75 18.42, 8.17 17.5, 9.77 16.61 C11.37 15.72, 13.17 14.84, 15.14 14 C17.11 13.16, 19.27 12.33, 21.58 11.54 C23.9 10.75, 26.39 9.99, 29.02 9.26 C31.66 8.54, 34.46 7.84, 37.39 7.19 C40.31 6.54, 43.39 5.92, 46.58 5.35 C49.77 4.77, 53.09 4.24, 56.5 3.75 C59.91 3.26, 63.44 2.82, 67.04 2.42 C70.64 2.02, 74.34 1.67, 78.08 1.37 C81.83 1.07, 85.65 0.81, 89.51 0.61 C93.36 0.41, 97.27 0.26, 101.19 0.15 C105.1 0.05, 109.06 0, 113 0 C116.94 0, 120.9 0.05, 124.81 0.15 C128.73 0.26, 132.64 0.41, 136.49 0.61 C140.35 0.81, 144.17 1.07, 147.92 1.37 C151.66 1.67, 155.36 2.02, 158.96 2.42 C162.56 2.82, 166.09 3.26, 169.5 3.75 C172.91 4.24, 176.23 4.77, 179.42 5.35 C182.61 5.92, 185.69 6.54, 188.61 7.19 C191.54 7.84, 194.34 8.54, 196.98 9.26 C199.61 9.99, 202.1 10.75, 204.42 11.54 C206.73 12.33, 208.89 13.16, 210.86 14 C212.83 14.84, 214.63 15.72, 216.23 16.61 C217.83 17.5, 219.25 18.42, 220.47 19.35 C221.69 20.28, 222.71 21.22, 223.53 22.18 C224.35 23.13, 224.97 24.1, 225.38 25.07 C225.79 26.04, 225.9 27.51, 226 28 C226.1 28.49, 226.1 27.51, 226 28" stroke="#000000" stroke-width="1" fill="none"></path></g><g stroke-linecap="round" transform="translate(3012.088017418268 437.9999999999999) rotate(0 79 85.99999999999989)"><path d="M32 0 M32 0 C52.55 0, 73.1 0, 126 0 M32 0 C52.47 0, 72.95 0, 126 0 M126 0 C147.33 0, 158 10.67, 158 32 M126 0 C147.33 0, 158 10.67, 158 32 M158 32 C158 53.72, 158 75.44, 158 140 M158 32 C158 58.05, 158 84.1, 158 140 M158 140 C158 161.33, 147.33 172, 126 172 M158 140 C158 161.33, 147.33 172, 126 172 M126 172 C94.57 172, 63.14 172, 32 172 M126 172 C106.13 172, 86.26 172, 32 172 M32 172 C10.67 172, 0 161.33, 0 140 M32 172 C10.67 172, 0 161.33, 0 140 M0 140 C0 108.93, 0 77.85, 0 32 M0 140 C0 99.82, 0 59.65, 0 32 M0 32 C0 10.67, 10.67 0, 32 0 M0 32 C0 10.67, 10.67 0, 32 0" stroke="#000000" stroke-width="1" fill="none"></path></g><g transform="translate(3033.498074486139 487.9999999999999) rotate(0 57.589942932128906 36)"><text x="57.589942932128906" y="0" font-family="Virgil, Segoe UI Emoji" font-size="20px" fill="#000000" text-anchor="middle" style="white-space: pre;" direction="ltr" dominant-baseline="text-before-edge">Dataset</text><text x="57.589942932128906" y="24" font-family="Virgil, Segoe UI Emoji" font-size="20px" fill="#000000" text-anchor="middle" style="white-space: pre;" direction="ltr" dominant-baseline="text-before-edge">Refresables</text><text x="57.589942932128906" y="48" font-family="Virgil, Segoe UI Emoji" font-size="20px" fill="#000000" text-anchor="middle" style="white-space: pre;" direction="ltr" dominant-baseline="text-before-edge">Storage</text></g><g stroke-linecap="round"><g transform="translate(2759.088017418268 543.9999999999999) rotate(0 124 -1)"><path d="M0 0 C41.33 -0.33, 206.67 -1.67, 248 -2 M0 0 C41.33 -0.33, 206.67 -1.67, 248 -2" stroke="#000000" stroke-width="1" fill="none"></path></g><g transform="translate(2759.088017418268 543.9999999999999) rotate(0 124 -1)"><path d="M219.89 8.49 C228.93 5.12, 237.96 1.74, 248 -2 M219.89 8.49 C230.66 4.47, 241.43 0.45, 248 -2" stroke="#000000" stroke-width="1" fill="none"></path></g><g transform="translate(2759.088017418268 543.9999999999999) rotate(0 124 -1)"><path d="M219.73 -12.03 C228.82 -8.81, 237.91 -5.58, 248 -2 M219.73 -12.03 C230.56 -8.19, 241.39 -4.34, 248 -2" stroke="#000000" stroke-width="1" fill="none"></path></g></g><mask></mask><g transform="translate(2719.3981370471743 477.9999999999999) rotate(0 133.68988037109375 12)"><text x="133.68988037109375" y="0" font-family="Virgil, Segoe UI Emoji" font-size="20px" fill="#000000" text-anchor="middle" style="white-space: pre;" direction="ltr" dominant-baseline="text-before-edge">partition by `ProcessDate`</text></g><g transform="translate(2700.8181199573305 583.9999999999999) rotate(0 156.2698974609375 12)"><text x="156.2698974609375" y="0" font-family="Virgil, Segoe UI Emoji" font-size="20px" fill="#000000" text-anchor="middle" style="white-space: pre;" direction="ltr" dominant-baseline="text-before-edge">data save 7 days per dataset</text></g><g stroke-linecap="round" transform="translate(3011.088017418268 679.9999999999999) rotate(0 85 196.99999999999977)"><path d="M32 0 M32 0 C54.82 0, 77.64 0, 138 0 M32 0 C61.23 0, 90.46 0, 138 0 M138 0 C159.33 0, 170 10.67, 170 32 M138 0 C159.33 0, 170 10.67, 170 32 M170 32 C170 99.29, 170 166.57, 170 362 M170 32 C170 108.34, 170 184.68, 170 362 M170 362 C170 383.33, 159.33 394, 138 394 M170 362 C170 383.33, 159.33 394, 138 394 M138 394 C110.13 394, 82.27 394, 32 394 M138 394 C96.2 394, 54.41 394, 32 394 M32 394 C10.67 394, 0 383.33, 0 362 M32 394 C10.67 394, 0 383.33, 0 362 M0 362 C0 252.24, 0 142.48, 0 32 M0 362 C0 265.72, 0 169.45, 0 32 M0 32 C0 10.67, 10.67 0, 32 0 M0 32 C0 10.67, 10.67 0, 32 0" stroke="#000000" stroke-width="1" fill="none"></path></g><g transform="translate(3054.3680543445375 855.9999999999999) rotate(0 38.71996307373047 24)"><text x="38.71996307373047" y="0" font-family="Virgil, Segoe UI Emoji" font-size="20px" fill="#000000" text-anchor="middle" style="white-space: pre;" direction="ltr" dominant-baseline="text-before-edge">Groups</text><text x="38.71996307373047" y="24" font-family="Virgil, Segoe UI Emoji" font-size="20px" fill="#000000" text-anchor="middle" style="white-space: pre;" direction="ltr" dominant-baseline="text-before-edge">Storage</text></g><g stroke-linecap="round"><g transform="translate(1967.088017418268 789.9999999999999) rotate(0 515 1.6489462164894348)"><path d="M0 0 C171.67 0.55, 858.33 2.75, 1030 3.3 M0 0 C171.67 0.55, 858.33 2.75, 1030 3.3" stroke="#000000" stroke-width="1" fill="none"></path></g><g transform="translate(1967.088017418268 789.9999999999999) rotate(0 515 1.6489462164894348)"><path d="M1001.78 13.47 C1008.23 11.14, 1014.69 8.81, 1030 3.3 M1001.78 13.47 C1008.27 11.13, 1014.76 8.79, 1030 3.3" stroke="#000000" stroke-width="1" fill="none"></path></g><g transform="translate(1967.088017418268 789.9999999999999) rotate(0 515 1.6489462164894348)"><path d="M1001.84 -7.05 C1008.29 -4.68, 1014.73 -2.32, 1030 3.3 M1001.84 -7.05 C1008.32 -4.67, 1014.79 -2.29, 1030 3.3" stroke="#000000" stroke-width="1" fill="none"></path></g></g><mask></mask><g stroke-linecap="round"><g transform="translate(1977.088017418268 985.9999999999997) rotate(0 516 0)"><path d="M0 0 C172 0, 860 0, 1032 0 M0 0 C172 0, 860 0, 1032 0" stroke="#000000" stroke-width="1" fill="none"></path></g><g transform="translate(1977.088017418268 985.9999999999997) rotate(0 516 0)"><path d="M1003.81 10.26 C1014.48 6.38, 1025.16 2.49, 1032 0 M1003.81 10.26 C1014.47 6.38, 1025.14 2.5, 1032 0" stroke="#000000" stroke-width="1" fill="none"></path></g><g transform="translate(1977.088017418268 985.9999999999997) rotate(0 516 0)"><path d="M1003.81 -10.26 C1014.48 -6.38, 1025.16 -2.49, 1032 0 M1003.81 -10.26 C1014.47 -6.38, 1025.14 -2.5, 1032 0" stroke="#000000" stroke-width="1" fill="none"></path></g></g><mask></mask><g transform="translate(2255.508152916315 753.9999999999999) rotate(0 181.57986450195312 12)"><text x="181.57986450195312" y="0" font-family="Virgil, Segoe UI Emoji" font-size="20px" fill="#000000" text-anchor="middle" style="white-space: pre;" direction="ltr" dominant-baseline="text-before-edge">truncate and load with `insertDate`</text></g><g transform="translate(2333.598126366022 941.9999999999997) rotate(0 117.4898910522461 12)"><text x="117.4898910522461" y="0" font-family="Virgil, Segoe UI Emoji" font-size="20px" fill="#000000" text-anchor="middle" style="white-space: pre;" direction="ltr" dominant-baseline="text-before-edge">merge with `insertDate`</text></g><g stroke-linecap="round" transform="translate(3016.254684084934 1504.6666666666665) rotate(0 85 196.99999999999977)"><path d="M32 0 M32 0 C55.74 0, 79.48 0, 138 0 M32 0 C56.6 0, 81.19 0, 138 0 M138 0 C159.33 0, 170 10.67, 170 32 M138 0 C159.33 0, 170 10.67, 170 32 M170 32 C170 113.69, 170 195.39, 170 362 M170 32 C170 145.92, 170 259.84, 170 362 M170 362 C170 383.33, 159.33 394, 138 394 M170 362 C170 383.33, 159.33 394, 138 394 M138 394 C110.07 394, 82.15 394, 32 394 M138 394 C107.4 394, 76.79 394, 32 394 M32 394 C10.67 394, 0 383.33, 0 362 M32 394 C10.67 394, 0 383.33, 0 362 M0 362 C0 233.86, 0 105.72, 0 32 M0 362 C0 240.55, 0 119.1, 0 32 M0 32 C0 10.67, 10.67 0, 32 0 M0 32 C0 10.67, 10.67 0, 32 0" stroke="#000000" stroke-width="1" fill="none"></path></g><g transform="translate(3037.594741457981 1641.6666666666665) rotate(0 63.659942626953125 60)"><text x="63.659942626953125" y="0" font-family="Virgil, Segoe UI Emoji" font-size="20px" fill="#000000" text-anchor="middle" style="white-space: pre;" direction="ltr" dominant-baseline="text-before-edge">Metadata:</text><text x="63.659942626953125" y="24" font-family="Virgil, Segoe UI Emoji" font-size="20px" fill="#000000" text-anchor="middle" style="white-space: pre;" direction="ltr" dominant-baseline="text-before-edge">Datasets</text><text x="63.659942626953125" y="48" font-family="Virgil, Segoe UI Emoji" font-size="20px" fill="#000000" text-anchor="middle" style="white-space: pre;" direction="ltr" dominant-baseline="text-before-edge">Datasources</text><text x="63.659942626953125" y="72" font-family="Virgil, Segoe UI Emoji" font-size="20px" fill="#000000" text-anchor="middle" style="white-space: pre;" direction="ltr" dominant-baseline="text-before-edge">Reports</text><text x="63.659942626953125" y="96" font-family="Virgil, Segoe UI Emoji" font-size="20px" fill="#000000" text-anchor="middle" style="white-space: pre;" direction="ltr" dominant-baseline="text-before-edge"></text></g><g stroke-linecap="round"><g transform="translate(2751.2546840849345 1703.6666666666665) rotate(0 131.99999999999977 -0.508964530128651)"><path d="M0 0 C44 -0.17, 220 -0.85, 264 -1.02 M0 0 C44 -0.17, 220 -0.85, 264 -1.02" stroke="#000000" stroke-width="1" fill="none"></path></g><g transform="translate(2751.2546840849345 1703.6666666666665) rotate(0 131.99999999999977 -0.508964530128651)"><path d="M235.85 9.35 C244.65 6.11, 253.44 2.87, 264 -1.02 M235.85 9.35 C241.64 7.22, 247.44 5.08, 264 -1.02" stroke="#000000" stroke-width="1" fill="none"></path></g><g transform="translate(2751.2546840849345 1703.6666666666665) rotate(0 131.99999999999977 -0.508964530128651)"><path d="M235.77 -11.17 C244.59 -8, 253.42 -4.82, 264 -1.02 M235.77 -11.17 C241.58 -9.08, 247.39 -6.99, 264 -1.02" stroke="#000000" stroke-width="1" fill="none"></path></g></g><mask></mask><g transform="translate(3043.134734744114 1549.6666666666665) rotate(0 60.11994934082031 24)"><text x="60.11994934082031" y="0" font-family="Virgil, Segoe UI Emoji" font-size="20px" fill="#000000" text-anchor="middle" style="white-space: pre;" direction="ltr" dominant-baseline="text-before-edge">Workspaces </text><text x="60.11994934082031" y="24" font-family="Virgil, Segoe UI Emoji" font-size="20px" fill="#000000" text-anchor="middle" style="white-space: pre;" direction="ltr" dominant-baseline="text-before-edge">Storage</text></g></svg>